Coordinates
version=1
nRows=24
nColumns=24
inDegrees=yes

Units are S.I. units (second, meters, Newtons, ...)
Angles are in degrees.

endheader
time	pelvis_tilt	pelvis_list	pelvis_rotation	pelvis_tx	pelvis_ty	pelvis_tz	hip_flexion_r	hip_adduction_r	hip_rotation_r	knee_angle_r	ankle_angle_r	subtalar_angle_r	mtp_angle_r	hip_flexion_l	hip_adduction_l	hip_rotation_l	knee_angle_l	ankle_angle_l	subtalar_angle_l	mtp_angle_l	lumbar_extension	lumbar_bending	lumbar_rotation
      4.89000000	      6.48433716	      4.64008851	      0.29632083	     -2.66536107	      0.71739014	      0.17752659	     15.38849007	     -4.47514463	      7.95666543	      2.80359163	      6.85564629	    -11.54852878	      0.00000000	    -22.40799617	      7.78813236	      0.40037255	    -13.36014479	     18.16796795	    -19.42461095	      0.00000000	    -26.38759686	     -3.87872889	    -11.92556842
      4.90000000	      6.86144194	      4.02630027	      0.47800470	     -2.65265351	      0.71799291	      0.17941832	     15.07678314	     -3.61504198	      8.83694134	      1.05644283	      5.17030466	    -14.22437084	      0.00000000	    -22.47101787	      6.95109338	      0.77289867	    -15.84477433	     16.62195780	    -20.47460784	      0.00000000	    -26.87947194	     -3.12737689	    -11.77102302
      4.91000000	      7.17831208	      3.33278727	      0.61628729	     -2.63993592	      0.71897624	      0.18139726	     14.87916316	     -2.60465942	      9.54382249	     -0.94290243	      3.44924352	    -16.66341986	      0.00000000	    -22.05789616	      6.05684880	      0.83902188	    -18.96819102	     14.71158225	    -21.46742435	      0.00000000	    -27.30485755	     -2.29422795	    -11.58305879
      4.92000000	      7.56696292	      2.53231106	      0.68964247	     -2.62721776	      0.72041069	      0.18341884	     14.67600598	     -1.42505924	      9.83044468	     -3.16501806	      2.10601734	    -18.35849332	      0.00000000	    -21.37195014	      5.07897714	      0.64051125	    -22.57626838	     12.28165017	    -22.58218730	      0.00000000	    -27.81480496	     -1.34573187	    -11.37304918
      4.93000000	      7.84559061	      1.70153879	      0.73529016	     -2.61454450	      0.72198051	      0.18539759	     14.63357934	     -0.20412469	      9.68404486	     -5.49878240	      1.30500355	    -19.23960840	      0.00000000	    -20.16755741	      4.06335714	      0.20767725	    -26.71833351	      9.28424567	    -23.75314101	      0.00000000	    -28.18920663	     -0.34885400	    -11.22071092
      4.94000000	      8.09623238	      0.84340738	      0.70802631	     -2.60188915	      0.72364707	      0.18736095	     14.57026861	      1.03771481	      9.37807395	     -7.75078469	      0.91857654	    -19.77174340	      0.00000000	    -18.65696535	      3.03031712	     -0.33196745	    -31.13919873	      5.52672164	    -25.25079572	      0.00000000	    -28.51727626	      0.66473301	    -11.02368348
      4.95000000	      8.24511113	      0.02007505	      0.62374699	     -2.58927948	      0.72525063	      0.18931759	     14.47794484	      2.21394461	      8.99851783	     -9.74545613	      0.83662638	    -19.97337556	      0.00000000	    -16.78725761	      1.99560194	     -1.00536302	    -35.74252051	      1.05481949	    -26.92610147	      0.00000000	    -28.70128983	      1.61796317	    -10.88553921
      4.96000000	      8.31008151	     -0.75837326	      0.51303038	     -2.57673073	      0.72676268	      0.19126220	     14.24382115	      3.29996116	      8.59540843	    -11.30290689	      0.98537803	    -20.06062366	      0.00000000	    -14.63525938	      0.93995411	     -1.74555734	    -40.38825869	     -3.97871638	    -28.70085134	      0.00000000	    -28.76490662	      2.49466750	    -10.77632170
      4.97000000	      8.35601697	     -1.50546587	      0.39410086	     -2.56425713	      0.72824106	      0.19319497	     13.78734943	      4.31856029	      8.20396400	    -12.41244122	      1.34692476	    -20.11408340	      0.00000000	    -12.34860286	     -0.13989401	     -2.44391341	    -44.91028229	     -9.33044128	    -30.47215134	      0.00000000	    -28.78062403	      3.30738874	    -10.63383135
      4.98000000	      8.31533236	     -2.17398324	      0.30037460	     -2.55193084	      0.72964324	      0.19511523	     13.15687941	      5.22136005	      7.88222717	    -13.02278756	      1.79019881	    -20.14490300	      0.00000000	     -9.86576320	     -1.21775153	     -3.09460018	    -49.23779229	    -14.48131945	    -31.92383652	      0.00000000	    -28.68524015	      4.00350396	    -10.58020898
      4.99000000	      8.26303310	     -2.77340539	      0.22643498	     -2.53978944	      0.73107606	      0.19701151	     12.32129050	      6.02683543	      7.58267927	    -13.22154971	      2.38740437	    -20.14173457	      0.00000000	     -7.32464693	     -2.25305592	     -3.62573841	    -53.24896588	    -18.94306552	    -32.93190826	      0.00000000	    -28.58638207	      4.58933833	    -10.49964265
      5.00000000	      8.16681148	     -3.27867586	      0.16244174	     -2.52787610	      0.73255594	      0.19888563	     11.34882276	      6.71536051	      7.34900674	    -13.07080712	      3.05054913	    -20.08226849	      0.00000000	     -4.71989938	     -3.18426727	     -4.02589431	    -56.87143042	    -22.13934038	    -33.23943752	      0.00000000	    -28.46169034	      5.03203558	    -10.40482913
      5.01000000	      8.12246735	     -3.70347875	      0.03307781	     -2.51618861	      0.73422378	      0.20079519	     10.17869153	      7.31912111	      7.26483005	    -12.65808483	      3.77118687	    -19.98859789	      0.00000000	     -2.23084883	     -4.00620743	     -4.40830523	    -59.98884983	    -23.78979313	    -32.87663697	      0.00000000	    -28.44129006	      5.32382732	    -10.18296960
      5.02000000	      8.00900775	     -3.96317638	     -0.19176980	     -2.50474368	      0.73598016	      0.20272672	      9.01706504	      7.73654616	      7.23316014	    -12.11468177	      4.71003533	    -19.63451743	      0.00000000	      0.25067713	     -4.56819436	     -4.73829197	    -62.56817465	    -23.70612924	    -31.84008696	      0.00000000	    -28.39435286	      5.37363313	     -9.95591060
      5.03000000	      7.88727779	     -4.12709581	     -0.56708626	     -2.49349767	      0.73789126	      0.20474678	      7.78778136	      8.04796170	      7.38995313	    -11.43815459	      5.52844460	    -19.20573040	      0.00000000	      2.61885445	     -4.98413805	     -5.15568462	    -64.58217854	    -21.94561229	    -30.06000992	      0.00000000	    -28.39049065	      5.24088547	     -9.57397969
      5.04000000	      7.79844977	     -4.12728031	     -1.09627063	     -2.48242828	      0.73997298	      0.20684054	      6.50352302	      8.17298253	      7.71668152	    -10.73334850	      6.42013011	    -18.71611881	      0.00000000	      4.80336555	     -5.16619990	     -5.65716852	    -66.00336348	    -18.78683542	    -27.61807623	      0.00000000	    -28.47193550	      4.85395867	     -9.08078491
      5.05000000	      7.70103419	     -4.02818867	     -1.72977795	     -2.47148717	      0.74210648	      0.20894880	      5.22264773	      8.16122278	      8.10255979	    -10.00969538	      7.30185400	    -18.15397630	      0.00000000	      6.86620293	     -5.21096814	     -6.22421927	    -66.88089992	    -14.79198262	    -24.82163086	      0.00000000	    -28.56892515	      4.31829195	     -8.54341351
      5.06000000	      7.58866795	     -3.81871385	     -2.47026414	     -2.46063463	      0.74422675	      0.21109103	      3.96512034	      8.00282704	      8.59202640	     -9.28902555	      8.13543691	    -17.55084931	      0.00000000	      8.80677573	     -5.13067713	     -6.88881461	    -67.22901061	    -10.54428865	    -21.98275820	      0.00000000	    -28.64531351	      3.61964535	     -7.95455614
      5.07000000	      7.46499151	     -3.52532246	     -3.25889045	     -2.44984233	      0.74625780	      0.21320620	      2.75132140	      7.71985988	      9.11370086	     -8.60162639	      8.96272285	    -16.93681662	      0.00000000	     10.63089274	     -4.95855585	     -7.60032999	    -67.08184736	     -6.51514757	    -19.42038201	      0.00000000	    -28.69425389	      2.81358951	     -7.37274925
      5.08000000	      7.32603253	     -3.16202887	     -4.05203652	     -2.43908355	      0.74814328	      0.21523361	      1.58624055	      7.32560388	      9.63757900	     -7.93895745	      9.75000249	    -16.32321722	      0.00000000	     12.34344457	     -4.70596441	     -8.32110572	    -66.46107389	     -2.99144135	    -17.35130909	      0.00000000	    -28.70023930	      1.94773483	     -6.84009999
      5.09000000	      7.16047341	     -2.76916953	     -4.80315584	     -2.42834154	      0.74979725	      0.21714780	      0.50460526	      6.87281155	     10.10440277	     -7.33896588	     10.55802834	    -15.73134164	      0.00000000	     13.96434700	     -4.40856365	     -8.98809913	    -65.41083844	     -0.05327688	    -15.88852272	      0.00000000	    -28.64542454	      1.07573656	     -6.36408986
      5.10000000	      6.97907817	     -2.34711108	     -5.51393329	     -2.41760216	      0.75121632	      0.21894085	     -0.52968335	      6.36251162	     10.54800892	     -6.75746153	     11.28842718	    -15.15673450	      0.00000000	     15.46377290	     -4.07363237	     -9.61953276	    -63.93115763	      2.27196318	    -15.01489693	      0.00000000	    -28.54462867	      0.20268998	     -5.98861571
      5.11000000	      6.76737693	     -1.95164509	     -6.16061664	     -2.40685178	      0.75233423	      0.22058851	     -1.48567881	      5.86535742	     10.92976531	     -6.23137247	     12.00815692	    -14.63026586	      0.00000000	     16.84821896	     -3.73632385	    -10.14031907	    -62.04528072	      4.11279543	    -14.67507911	      0.00000000	    -28.38844427	     -0.59769585	     -5.66367827
      5.12000000	      6.49995377	     -1.59442844	     -6.74552393	     -2.39611233	      0.75309153	      0.22207342	     -2.33553596	      5.40573336	     11.32923935	     -5.76908288	     12.69384882	    -14.30329656	      0.00000000	     18.13910349	     -3.40186838	    -10.53124235	    -59.75984501	      5.48282006	    -14.89069966	      0.00000000	    -28.16734783	     -1.30618532	     -5.37091527
